<svg width="61" height="61" viewBox="0 0 61 61" fill="none" xmlns="http://www.w3.org/2000/svg">
<path d="M43.2299 53.3623L17.8133 53.3864C12.2216 53.3915 7.64281 48.8216 7.63645 43.2299L7.61231 17.8133C7.60723 12.2216 12.1771 7.64279 17.7688 7.63644L43.1855 7.61229C48.7771 7.60721 53.356 12.1771 53.3623 17.7688L53.3864 43.1855C53.3928 48.7784 48.8216 53.3572 43.2299 53.3623Z" fill="url(#paint0_radial_26_523)"/>
<path d="M43.2299 53.3623L17.8133 53.3864C12.2216 53.3915 7.64281 48.8216 7.63645 43.2299L7.61231 17.8133C7.60723 12.2216 12.1771 7.64279 17.7688 7.63644L43.1855 7.61229C48.7771 7.60721 53.356 12.1771 53.3623 17.7688L53.3864 43.1855C53.3928 48.7784 48.8216 53.3572 43.2299 53.3623Z" fill="url(#paint1_radial_26_523)"/>
<path d="M30.4998 39.3958C25.5957 39.3958 21.604 35.4054 21.604 30.5C21.604 25.5945 25.5957 21.6041 30.4998 21.6041C35.404 21.6041 39.3957 25.5945 39.3957 30.5C39.3957 35.4054 35.404 39.3958 30.4998 39.3958ZM30.4998 24.1458C26.9962 24.1458 24.1457 26.9963 24.1457 30.5C24.1457 34.0036 26.9962 36.8541 30.4998 36.8541C34.0035 36.8541 36.854 34.0036 36.854 30.5C36.854 26.9963 34.0035 24.1458 30.4998 24.1458Z" fill="white"/>
<path d="M40.0312 22.875C41.084 22.875 41.9375 22.0215 41.9375 20.9688C41.9375 19.916 41.084 19.0625 40.0312 19.0625C38.9785 19.0625 38.125 19.916 38.125 20.9688C38.125 22.0215 38.9785 22.875 40.0312 22.875Z" fill="white"/>
<path d="M38.1248 47.0208H22.8748C17.9707 47.0208 13.979 43.0304 13.979 38.125V22.875C13.979 17.9696 17.9707 13.9792 22.8748 13.9792H38.1248C43.029 13.9792 47.0207 17.9696 47.0207 22.875V38.125C47.0207 43.0304 43.029 47.0208 38.1248 47.0208ZM22.8748 16.5208C19.3711 16.5208 16.5207 19.3713 16.5207 22.875V38.125C16.5207 41.6287 19.3711 44.4792 22.8748 44.4792H38.1248C41.6285 44.4792 44.479 41.6287 44.479 38.125V22.875C44.479 19.3713 41.6285 16.5208 38.1248 16.5208H22.8748Z" fill="white"/>
<defs>
<radialGradient id="paint0_radial_26_523" cx="0" cy="0" r="1" gradientUnits="userSpaceOnUse" gradientTransform="translate(24.6288 53.4195) scale(57.0591 57.0591)">
<stop stop-color="#FFDD55"/>
<stop offset="0.328" stop-color="#FF543F"/>
<stop offset="0.348" stop-color="#FC5245"/>
<stop offset="0.504" stop-color="#E64771"/>
<stop offset="0.643" stop-color="#D53E91"/>
<stop offset="0.761" stop-color="#CC39A4"/>
<stop offset="0.841" stop-color="#C837AB"/>
</radialGradient>
<radialGradient id="paint1_radial_26_523" cx="0" cy="0" r="1" gradientUnits="userSpaceOnUse" gradientTransform="translate(14.9781 7.0408) scale(37.8874 25.2443)">
<stop stop-color="#4168C9"/>
<stop offset="0.999" stop-color="#4168C9" stop-opacity="0"/>
</radialGradient>
</defs>
</svg>
